# Blender v2.81 (sub 16) OBJ File: ''
# www.blender.org
mtllib fence1.mtl
o fence_1_Mesh.003
v -0.141125 -0.295593 2.075851
v 0.160462 -0.303387 2.055960
v -0.159248 -0.288331 1.798222
v 0.142339 -0.296125 1.778331
v -0.123510 0.895638 2.120705
v 0.210174 0.887014 2.098697
v -0.143562 0.903672 1.813529
v 0.190121 0.895049 1.791521
v -0.202127 -0.283388 0.598889
v 0.185450 -0.309137 0.627602
v -0.175606 -0.282902 0.321841
v 0.211970 -0.308652 0.350554
v -0.141330 0.907048 0.621674
v 0.190944 0.884949 0.653442
v -0.111987 0.907585 0.315141
v 0.220286 0.885487 0.346909
v 0.168343 -0.299854 -1.727949
v 0.181818 -0.300234 -2.041702
v -0.150479 -0.291485 -1.740357
v -0.137005 -0.291865 -2.054111
v 0.188741 0.937336 -1.710551
v 0.203650 0.936916 -2.057695
v -0.130682 0.946596 -1.724279
v -0.115773 0.946176 -2.071424
v 0.103188 0.404286 -1.738183
v -0.037976 0.382815 -1.730526
v -0.055530 0.683831 -1.745760
v 0.085634 0.705302 -1.753416
v 0.097954 0.405815 0.345440
v 0.081605 0.694472 0.352569
v -0.045914 0.673624 0.358625
v -0.029566 0.384967 0.351495
v 0.064230 0.725150 -0.739165
v 0.079479 0.381768 -0.735706
v -0.029489 0.702049 -0.731635
v -0.014240 0.358667 -0.728176
v 0.105399 0.439275 0.423470
v -0.035722 0.417283 0.429759
v -0.054023 0.718507 0.422887
v 0.087099 0.740500 0.416598
v 0.096410 0.394885 1.830774
v 0.079306 0.683256 1.844330
v -0.048170 0.661956 1.849178
v -0.031066 0.373586 1.835621
v 0.063785 0.737537 1.006662
v 0.079911 0.394217 1.001592
v -0.029888 0.714037 1.012892
v -0.013762 0.370718 1.007822
v 0.024701 0.015645 1.917022
vt 0.251983 0.153866
vt 0.251983 0.098862
vt 0.193392 0.098862
vt 0.193392 0.153866
vt 0.251983 0.153866
vt 0.193392 0.153866
vt 0.193392 0.098862
vt 0.251983 0.098862
vt 0.299982 0.053642
vt 0.299982 0.076141
vt 0.194597 0.076141
vt 0.194597 0.053642
vt 0.299982 0.071720
vt 0.194597 0.071720
vt 0.299982 0.094219
vt 0.194597 0.094219
vt 0.251983 0.153866
vt 0.251983 0.098862
vt 0.193392 0.098862
vt 0.193392 0.153866
vt 0.251983 0.153866
vt 0.193392 0.153866
vt 0.193392 0.098862
vt 0.251983 0.098862
vt 0.299982 0.053642
vt 0.299982 0.076141
vt 0.194597 0.076141
vt 0.194597 0.053642
vt 0.299982 0.071720
vt 0.194597 0.071720
vt 0.299982 0.094219
vt 0.194597 0.094219
vt 0.251983 0.153866
vt 0.251983 0.098862
vt 0.193392 0.098862
vt 0.193392 0.153866
vt 0.251983 0.153866
vt 0.193392 0.153866
vt 0.193392 0.098862
vt 0.251983 0.098862
vt 0.299982 0.053642
vt 0.299982 0.076141
vt 0.194597 0.076141
vt 0.194597 0.053642
vt 0.299982 0.071720
vt 0.194597 0.071720
vt 0.299982 0.094219
vt 0.194597 0.094219
vt 0.251983 0.153866
vt 0.251983 0.098862
vt 0.193392 0.098862
vt 0.193392 0.153866
vt 0.251983 0.153866
vt 0.193392 0.153866
vt 0.193392 0.098862
vt 0.251983 0.098862
vt 0.194597 0.076141
vt 0.194597 0.053642
vt 0.247290 0.053642
vt 0.247290 0.076141
vt 0.194597 0.071720
vt 0.247290 0.071720
vt 0.194597 0.094219
vt 0.247290 0.094219
vt 0.299982 0.053642
vt 0.299982 0.076141
vt 0.299982 0.071720
vt 0.299982 0.094219
vt 0.251983 0.153866
vt 0.251983 0.098862
vt 0.193392 0.098862
vt 0.193392 0.153866
vt 0.251983 0.153866
vt 0.193392 0.153866
vt 0.193392 0.098862
vt 0.251983 0.098862
vt 0.194597 0.076141
vt 0.194597 0.053642
vt 0.247290 0.053642
vt 0.247290 0.076141
vt 0.194597 0.071720
vt 0.247290 0.071720
vt 0.194597 0.094219
vt 0.247290 0.094219
vt 0.299982 0.053642
vt 0.299982 0.076141
vt 0.299982 0.071720
vt 0.299982 0.094219
vn -0.0274 -0.9993 -0.0243
vn 0.0274 0.9993 0.0243
vn 0.0648 -0.0385 0.9972
vn 0.9970 -0.0393 -0.0661
vn -0.0655 0.0137 -0.9978
vn -0.9978 0.0123 0.0655
vn -0.0657 -0.9978 -0.0080
vn 0.0656 0.9978 0.0080
vn -0.0920 -0.0155 0.9956
vn -0.0961 -0.0141 0.9953
vn -0.0789 -0.0200 0.9967
vn -0.0753 -0.0212 0.9969
vn 0.9954 -0.0066 0.0953
vn 0.0906 -0.0049 -0.9959
vn 0.0949 -0.0037 -0.9955
vn 0.0771 -0.0085 -0.9970
vn 0.0732 -0.0095 -0.9973
vn -0.9941 0.0526 -0.0951
vn -0.0262 -0.9997 0.0001
vn 0.0290 0.9996 0.0000
vn 0.9989 -0.0171 0.0429
vn 0.0419 -0.0138 -0.9990
vn 0.0425 -0.0137 -0.9990
vn 0.0392 -0.0145 -0.9991
vn 0.0385 -0.0146 -0.9992
vn -0.9989 0.0165 -0.0429
vn -0.0426 -0.0125 0.9990
vn -0.0433 -0.0123 0.9990
vn -0.0399 -0.0132 0.9991
vn -0.0392 -0.0134 0.9991
vn -0.0460 -0.0532 -0.9975
vn 0.0510 -0.0218 0.9985
vn 0.9982 0.0562 0.0209
vn 0.9980 0.0592 0.0199
vn 0.9989 0.0468 0.0034
vn 0.9990 0.0444 0.0031
vn -0.1569 0.9874 -0.0219
vn -0.2389 0.9710 0.0060
vn -0.2322 0.9727 0.0042
vn -0.1515 0.9882 -0.0225
vn -0.9982 -0.0543 0.0258
vn -0.9990 -0.0443 0.0046
vn -0.9989 -0.0465 0.0050
vn -0.9980 -0.0569 0.0266
vn 0.1546 -0.9876 -0.0266
vn 0.2393 -0.9709 -0.0002
vn 0.2326 -0.9726 0.0013
vn 0.1489 -0.9885 -0.0273
vn 0.9983 0.0569 -0.0143
vn 0.9984 0.0545 -0.0150
vn -0.1644 0.9859 0.0298
vn -0.1599 0.9867 0.0303
vn -0.9984 -0.0539 -0.0159
vn -0.9983 -0.0561 -0.0165
vn 0.1669 -0.9856 0.0258
vn 0.1625 -0.9864 0.0263
vn -0.0406 -0.0253 -0.9989
vn 0.0453 -0.0442 0.9980
vn 0.9975 0.0564 0.0423
vn 0.9973 0.0615 0.0397
vn 0.9986 0.0504 0.0136
vn 0.9988 0.0467 0.0133
vn -0.1632 0.9866 0.0008
vn -0.2408 0.9699 0.0369
vn -0.2307 0.9724 0.0344
vn -0.1540 0.9881 -0.0011
vn -0.9977 -0.0556 0.0383
vn -0.9989 -0.0470 0.0063
vn -0.9987 -0.0502 0.0075
vn -0.9974 -0.0597 0.0403
vn 0.1595 -0.9837 -0.0829
vn 0.2409 -0.9699 -0.0362
vn 0.2307 -0.9724 -0.0343
vn 0.1497 -0.9851 -0.0850
vn 0.9981 0.0599 -0.0146
vn 0.9983 0.0568 -0.0159
vn -0.1678 0.9836 0.0659
vn -0.1620 0.9845 0.0668
vn -0.9982 -0.0552 -0.0243
vn -0.9980 -0.0580 -0.0254
vn 0.1708 -0.9853 0.0061
vn 0.1651 -0.9863 0.0069
usemtl TT_RTS_Buildings_mat
s 1
f 4/1/1 2/2/1 1/3/1
f 1/3/1 3/4/1 4/1/1
f 8/5/2 7/6/2 5/7/2
f 5/7/2 6/8/2 8/5/2
f 6/9/3 5/10/3 1/11/3
f 1/11/3 2/12/3 6/9/3
f 8/13/4 6/9/4 2/12/4
f 2/12/4 4/14/4 8/13/4
f 7/15/5 8/13/5 4/14/5
f 4/14/5 3/16/5 7/15/5
f 5/10/6 7/15/6 3/16/6
f 3/16/6 1/11/6 5/10/6
f 12/17/7 10/18/7 9/19/7
f 9/19/7 11/20/7 12/17/7
f 16/21/8 15/22/8 13/23/8
f 13/23/8 14/24/8 16/21/8
f 14/25/9 13/26/10 9/27/11
f 9/27/11 10/28/12 14/25/9
f 16/29/13 14/25/13 10/28/13
f 10/28/13 12/30/13 16/29/13
f 15/31/14 16/29/15 12/30/16
f 12/30/16 11/32/17 15/31/14
f 13/26/18 15/31/18 11/32/18
f 11/32/18 9/27/18 13/26/18
f 20/33/19 18/34/19 17/35/19
f 17/35/19 19/36/19 20/33/19
f 24/37/20 23/38/20 21/39/20
f 21/39/20 22/40/20 24/37/20
f 22/41/21 21/42/21 17/43/21
f 17/43/21 18/44/21 22/41/21
f 24/45/22 22/41/23 18/44/24
f 18/44/24 20/46/25 24/45/22
f 23/47/26 24/45/26 20/46/26
f 20/46/26 19/48/26 23/47/26
f 21/42/27 23/47/28 19/48/29
f 19/48/29 17/43/30 21/42/27
f 27/49/31 28/50/31 25/51/31
f 25/51/31 26/52/31 27/49/31
f 31/53/32 32/54/32 29/55/32
f 29/55/32 30/56/32 31/53/32
f 25/57/33 28/58/34 33/59/35
f 33/59/35 34/60/36 25/57/33
f 27/61/37 35/62/38 33/59/39
f 33/59/39 28/58/40 27/61/37
f 26/63/41 36/64/42 35/62/43
f 35/62/43 27/61/44 26/63/41
f 25/57/45 34/60/46 36/64/47
f 36/64/47 26/63/48 25/57/45
f 33/59/35 30/65/49 29/66/50
f 29/66/50 34/60/36 33/59/35
f 31/67/51 30/65/52 33/59/39
f 33/59/39 35/62/38 31/67/51
f 32/68/53 31/67/54 35/62/43
f 35/62/43 36/64/42 32/68/53
f 29/66/55 32/68/56 36/64/47
f 36/64/47 34/60/46 29/66/55
f 39/69/57 40/70/57 37/71/57
f 37/71/57 38/72/57 39/69/57
f 43/73/58 44/74/58 41/75/58
f 41/75/58 42/76/58 43/73/58
f 37/77/59 40/78/60 45/79/61
f 45/79/61 46/80/62 37/77/59
f 39/81/63 47/82/64 45/79/65
f 45/79/65 40/78/66 39/81/63
f 38/83/67 48/84/68 47/82/69
f 47/82/69 39/81/70 38/83/67
f 37/77/71 46/80/72 48/84/73
f 48/84/73 38/83/74 37/77/71
f 45/79/61 42/85/75 41/86/76
f 41/86/76 46/80/62 45/79/61
f 43/87/77 42/85/78 45/79/65
f 45/79/65 47/82/64 43/87/77
f 44/88/79 43/87/80 47/82/69
f 47/82/69 48/84/68 44/88/79
f 41/86/81 44/88/82 48/84/73
f 48/84/73 46/80/72 41/86/81
