# Blender v2.81 (sub 16) OBJ File: ''
# www.blender.org
mtllib windmillWings.mtl
o wings_Cube.002
v -0.471598 4.245530 1.439378
v -0.500899 4.759068 1.451085
v -0.491592 4.245530 1.389766
v -0.520894 4.759068 1.401474
v -0.100281 4.245530 1.291022
v -0.059057 4.759068 1.274551
v -0.120276 4.245530 1.241411
v -0.079051 4.759068 1.224940
v -0.522231 5.310855 1.459608
v -0.542226 5.310855 1.409997
v -0.054096 5.310855 1.214969
v -0.034101 5.310855 1.264581
v -0.559094 5.831357 1.474336
v -0.579089 5.831357 1.424725
v -0.010966 5.831357 1.197737
v 0.009029 5.831357 1.247349
v -0.297219 4.083827 1.398533
v -0.297219 5.644765 1.398533
v -0.334553 4.083827 1.299731
v -0.334553 5.644765 1.299731
v -0.200381 4.083827 1.360443
v -0.200381 5.644765 1.360443
v -0.237714 4.083827 1.261641
v -0.237714 5.644765 1.261641
v -0.418471 3.813915 1.427531
v -0.418471 4.105100 1.427531
v -0.418471 3.813915 0.278697
v -0.418471 4.105100 0.278697
v -0.120052 3.813915 1.427531
v -0.120052 4.105100 1.427531
v -0.120052 3.813915 0.278697
v -0.120052 4.105100 0.278697
v 0.018687 4.169212 1.432631
v 0.532424 4.194784 1.444338
v 0.018833 4.189207 1.383019
v 0.532570 4.214778 1.394727
v 0.015991 3.797906 1.284275
v 0.529216 3.752953 1.267805
v 0.016136 3.817900 1.234664
v 0.529361 3.772947 1.218193
v 1.084352 4.212109 1.452861
v 1.084498 4.232103 1.403250
v 1.080953 3.743986 1.208222
v 1.080808 3.723991 1.257834
v 1.605108 4.245191 1.467589
v 1.605253 4.265185 1.417978
v 1.601127 3.697077 1.190990
v 1.600982 3.677082 1.240602
v -0.144278 3.996013 1.391786
v 1.416620 3.984678 1.391786
v -0.144006 4.033346 1.292984
v 1.416891 4.022010 1.292984
v -0.144981 3.899177 1.353696
v 1.415916 3.887842 1.353696
v -0.144710 3.936510 1.254894
v 1.416187 3.925174 1.254894
v -0.566360 3.752296 1.432631
v -1.079800 3.721334 1.444338
v -0.566295 3.732301 1.383019
v -1.079736 3.701339 1.394727
v -0.567561 4.123611 1.284275
v -1.081229 4.163174 1.267805
v -0.567496 4.103616 1.234664
v -1.081164 4.143180 1.218193
v -1.631516 3.698218 1.452861
v -1.631452 3.678223 1.403250
v -1.633030 4.166351 1.208222
v -1.633095 4.186345 1.257834
v -2.151896 3.659672 1.467589
v -2.151831 3.639677 1.417978
v -2.153668 4.207798 1.190990
v -2.153733 4.227792 1.240602
v -0.405222 3.927197 1.391786
v -1.966152 3.922149 1.391786
v -0.405101 3.889863 1.292984
v -1.966031 3.884816 1.292984
v -0.405535 4.024035 1.353696
v -1.966465 4.018987 1.353696
v -0.405414 3.986701 1.254894
v -1.966344 3.981654 1.254894
v -0.066265 3.657135 1.435009
v -0.039629 3.143453 1.446716
v -0.046270 3.657032 1.385398
v -0.019635 3.143349 1.397105
v -0.437577 3.659063 1.286653
v -0.481466 3.145746 1.270183
v -0.417582 3.658959 1.237042
v -0.461471 3.145642 1.220571
v -0.021161 2.591562 1.455239
v -0.001167 2.591458 1.405628
v -0.489290 2.593992 1.210601
v -0.509285 2.594095 1.260212
v 0.013000 2.070876 1.469967
v 0.032994 2.070772 1.420356
v -0.535122 2.073721 1.193368
v -0.555116 2.073825 1.242980
v -0.239802 3.819741 1.394164
v -0.247903 2.258824 1.394164
v -0.202469 3.819547 1.295362
v -0.210570 2.258630 1.295362
v -0.336639 3.820244 1.356074
v -0.344740 2.259327 1.356074
v -0.299306 3.820050 1.257272
v -0.307408 2.259133 1.257272
vt 0.212389 0.274799
vt 0.212371 0.347745
vt 0.195210 0.347531
vt 0.195135 0.274750
vt 0.253433 0.400216
vt 0.253211 0.509880
vt 0.174862 0.509599
vt 0.174186 0.400028
vt 0.213416 0.275926
vt 0.213701 0.347273
vt 0.195361 0.347442
vt 0.195865 0.276079
vt 0.253037 0.400458
vt 0.253204 0.509984
vt 0.174703 0.509434
vt 0.174463 0.399919
vt 0.194836 0.346661
vt 0.195325 0.277592
vt 0.212728 0.277678
vt 0.212728 0.346258
vt 0.252818 0.400399
vt 0.174635 0.400220
vt 0.195624 0.275986
vt 0.213406 0.275963
vt 0.213702 0.347272
vt 0.195670 0.347287
vt 0.212424 0.274784
vt 0.195133 0.274717
vt 0.253166 0.400643
vt 0.174099 0.400104
vt 0.194382 0.343677
vt 0.194382 0.276886
vt 0.219678 0.276911
vt 0.219678 0.343702
vt 0.212529 0.347439
vt 0.195221 0.347679
vt 0.253113 0.509953
vt 0.174894 0.509599
vt 0.253017 0.510042
vt 0.174571 0.509966
vt 0.249679 0.276750
vt 0.249238 0.348013
vt 0.196189 0.347572
vt 0.196630 0.276309
vt 0.249472 0.276528
vt 0.249467 0.347792
vt 0.196417 0.347787
vt 0.196422 0.276522
vt 0.250201 0.276298
vt 0.250133 0.347492
vt 0.197154 0.347423
vt 0.197222 0.276229
vt 0.196443 0.347814
vt 0.196387 0.276549
vt 0.249437 0.276493
vt 0.249493 0.347758
vt 0.194342 0.098310
vt 0.250496 0.098310
vt 0.250496 0.154464
vt 0.194342 0.154464
vt 0.194341 0.098292
vt 0.250495 0.098292
vt 0.250495 0.154446
vt 0.194341 0.154446
vt 0.193627 0.274446
vt 0.252953 0.274446
vt 0.252953 0.346174
vt 0.193627 0.346174
vt 0.192287 0.098047
vt 0.251576 0.098047
vt 0.251576 0.154260
vt 0.192287 0.154260
vt 0.193627 0.274446
vt 0.252953 0.274446
vt 0.252953 0.346174
vt 0.193627 0.346174
vt 0.192077 0.098302
vt 0.251981 0.098302
vt 0.251366 0.154516
vt 0.191462 0.154516
vt 0.252953 0.274446
vt 0.252953 0.346174
vt 0.193627 0.274446
vt 0.193627 0.346174
vt 0.212389 0.274799
vt 0.212371 0.347745
vt 0.195210 0.347531
vt 0.195135 0.274750
vt 0.253433 0.400216
vt 0.253211 0.509880
vt 0.174862 0.509599
vt 0.174186 0.400028
vt 0.213416 0.275926
vt 0.213701 0.347273
vt 0.195361 0.347442
vt 0.195865 0.276079
vt 0.253037 0.400458
vt 0.253204 0.509984
vt 0.174703 0.509434
vt 0.174463 0.399919
vt 0.194836 0.346661
vt 0.195325 0.277592
vt 0.212728 0.277678
vt 0.212728 0.346258
vt 0.252818 0.400399
vt 0.174635 0.400220
vt 0.195624 0.275986
vt 0.213406 0.275963
vt 0.213702 0.347272
vt 0.195670 0.347287
vt 0.212424 0.274784
vt 0.195133 0.274717
vt 0.253166 0.400643
vt 0.174099 0.400104
vt 0.194382 0.343677
vt 0.194382 0.276886
vt 0.219678 0.276911
vt 0.219678 0.343702
vt 0.212529 0.347439
vt 0.195221 0.347679
vt 0.253113 0.509953
vt 0.174894 0.509599
vt 0.253017 0.510042
vt 0.174571 0.509966
vt 0.249679 0.276750
vt 0.249238 0.348013
vt 0.196189 0.347572
vt 0.196630 0.276309
vt 0.249472 0.276528
vt 0.249467 0.347792
vt 0.196417 0.347787
vt 0.196422 0.276522
vt 0.250201 0.276298
vt 0.250133 0.347492
vt 0.197154 0.347423
vt 0.197222 0.276229
vt 0.196443 0.347814
vt 0.196387 0.276549
vt 0.249437 0.276493
vt 0.249493 0.347758
vt 0.194342 0.098310
vt 0.250496 0.098310
vt 0.250496 0.154464
vt 0.194342 0.154464
vt 0.194341 0.098292
vt 0.250495 0.098292
vt 0.250495 0.154446
vt 0.194341 0.154446
vt 0.212389 0.274799
vt 0.212371 0.347745
vt 0.195210 0.347531
vt 0.195135 0.274750
vt 0.253433 0.400216
vt 0.253211 0.509880
vt 0.174862 0.509599
vt 0.174186 0.400028
vt 0.213416 0.275926
vt 0.213701 0.347273
vt 0.195361 0.347442
vt 0.195865 0.276079
vt 0.253037 0.400458
vt 0.253204 0.509984
vt 0.174703 0.509434
vt 0.174463 0.399919
vt 0.194836 0.346661
vt 0.195325 0.277592
vt 0.212728 0.277678
vt 0.212728 0.346258
vt 0.252818 0.400399
vt 0.174635 0.400220
vt 0.195624 0.275986
vt 0.213406 0.275963
vt 0.213702 0.347272
vt 0.195670 0.347287
vt 0.212424 0.274784
vt 0.195133 0.274717
vt 0.253166 0.400643
vt 0.174099 0.400104
vt 0.194382 0.343677
vt 0.194382 0.276886
vt 0.219678 0.276911
vt 0.219678 0.343702
vt 0.212529 0.347439
vt 0.195221 0.347679
vt 0.253113 0.509953
vt 0.174894 0.509599
vt 0.253017 0.510042
vt 0.174571 0.509966
vt 0.249679 0.276750
vt 0.249238 0.348013
vt 0.196189 0.347572
vt 0.196630 0.276309
vt 0.249472 0.276528
vt 0.249467 0.347792
vt 0.196417 0.347787
vt 0.196422 0.276522
vt 0.250201 0.276298
vt 0.250133 0.347492
vt 0.197154 0.347423
vt 0.197222 0.276229
vt 0.196443 0.347814
vt 0.196387 0.276549
vt 0.249437 0.276493
vt 0.249493 0.347758
vt 0.194342 0.098310
vt 0.250496 0.098310
vt 0.250496 0.154464
vt 0.194342 0.154464
vt 0.194341 0.098292
vt 0.250495 0.098292
vt 0.250495 0.154446
vt 0.194341 0.154446
vt 0.212389 0.274799
vt 0.212371 0.347745
vt 0.195210 0.347531
vt 0.195135 0.274750
vt 0.253433 0.400216
vt 0.253211 0.509880
vt 0.174862 0.509599
vt 0.174186 0.400028
vt 0.213416 0.275926
vt 0.213701 0.347273
vt 0.195361 0.347442
vt 0.195865 0.276079
vt 0.253037 0.400458
vt 0.253204 0.509984
vt 0.174703 0.509434
vt 0.174463 0.399919
vt 0.194836 0.346661
vt 0.195325 0.277592
vt 0.212728 0.277678
vt 0.212728 0.346258
vt 0.252818 0.400399
vt 0.174635 0.400220
vt 0.195624 0.275986
vt 0.213406 0.275963
vt 0.213702 0.347272
vt 0.195670 0.347287
vt 0.212424 0.274784
vt 0.195133 0.274717
vt 0.253166 0.400643
vt 0.174099 0.400104
vt 0.194382 0.343677
vt 0.194382 0.276886
vt 0.219678 0.276911
vt 0.219678 0.343702
vt 0.212529 0.347439
vt 0.195221 0.347679
vt 0.253113 0.509953
vt 0.174894 0.509599
vt 0.253017 0.510042
vt 0.174571 0.509966
vt 0.249679 0.276750
vt 0.249238 0.348013
vt 0.196189 0.347572
vt 0.196630 0.276309
vt 0.249472 0.276528
vt 0.249467 0.347792
vt 0.196417 0.347787
vt 0.196422 0.276522
vt 0.250201 0.276298
vt 0.250133 0.347492
vt 0.197154 0.347423
vt 0.197222 0.276229
vt 0.196443 0.347814
vt 0.196387 0.276549
vt 0.249437 0.276493
vt 0.249493 0.347758
vt 0.194342 0.098310
vt 0.250496 0.098310
vt 0.250496 0.154464
vt 0.194342 0.154464
vt 0.194341 0.098292
vt 0.250495 0.098292
vt 0.250495 0.154446
vt 0.194341 0.154446
vn -0.9258 -0.0613 0.3731
vn -0.3710 0.0000 -0.9286
vn 0.9241 -0.0861 -0.3724
vn 0.3710 -0.0000 0.9286
vn 0.0000 -1.0000 0.0000
vn 0.9238 -0.0889 -0.3723
vn 0.9264 -0.0486 -0.3734
vn -0.9267 -0.0416 0.3735
vn 0.0000 1.0000 0.0000
vn -0.9248 -0.0760 0.3727
vn -0.9354 0.0000 0.3535
vn -0.3660 0.0000 -0.9306
vn 0.9354 0.0000 -0.3535
vn 0.3660 0.0000 0.9306
vn -1.0000 0.0000 0.0000
vn 0.0000 0.0000 -1.0000
vn 1.0000 0.0000 0.0000
vn 0.0000 0.0000 1.0000
vn -0.0546 0.9262 0.3731
vn 0.0027 0.3710 -0.9286
vn -0.0928 -0.9234 -0.3724
vn -0.0027 -0.3710 0.9286
vn -1.0000 0.0073 -0.0000
vn -0.0956 -0.9232 -0.3723
vn -0.0554 -0.9260 -0.3734
vn -0.0349 0.9270 0.3735
vn 1.0000 -0.0073 0.0000
vn -0.0693 0.9254 0.3727
vn 0.0068 0.9354 0.3535
vn 0.0027 0.3660 -0.9306
vn -0.0068 -0.9354 -0.3535
vn -0.0027 -0.3660 0.9306
vn 0.0643 -0.9256 0.3731
vn 0.0012 -0.3710 -0.9286
vn 0.0831 0.9243 -0.3724
vn -0.0012 0.3710 0.9286
vn 1.0000 0.0032 0.0000
vn 0.0859 0.9241 -0.3723
vn 0.0456 0.9266 -0.3734
vn 0.0446 -0.9266 0.3735
vn -1.0000 -0.0032 0.0000
vn 0.0790 -0.9246 0.3727
vn 0.0030 -0.9354 0.3535
vn 0.0012 -0.3660 -0.9306
vn -0.0030 0.9354 -0.3535
vn -0.0012 0.3660 0.9306
vn 0.9261 0.0565 0.3731
vn 0.3710 -0.0019 -0.9286
vn -0.9236 0.0909 -0.3724
vn -0.3710 0.0019 0.9286
vn 0.0052 1.0000 0.0000
vn -0.9234 0.0937 -0.3723
vn -0.9261 0.0535 -0.3734
vn 0.9269 0.0368 0.3735
vn -0.0052 -1.0000 0.0000
vn 0.9252 0.0712 0.3727
vn 0.9354 -0.0049 0.3535
vn 0.3660 -0.0019 -0.9306
vn -0.9354 0.0049 -0.3535
vn -0.3660 0.0019 0.9306
usemtl Material.001
s off
f 1/1/1 2/2/1 4/3/1 3/4/1
f 3/5/2 4/6/2 8/7/2 7/8/2
f 7/9/3 8/10/3 6/11/3 5/12/3
f 5/13/4 6/14/4 2/15/4 1/16/4
f 3/17/5 7/18/5 5/19/5 1/20/5
f 8/7/2 4/6/2 10/21/2 11/22/2
f 12/23/6 11/24/6 15/25/6 16/26/6
f 6/11/7 8/10/7 11/24/7 12/23/7
f 4/3/8 2/2/8 9/27/8 10/28/8
f 2/15/4 6/14/4 12/29/4 9/30/4
f 15/31/9 14/32/9 13/33/9 16/34/9
f 10/28/10 9/27/10 13/35/10 14/36/10
f 9/30/4 12/29/4 16/37/4 13/38/4
f 11/22/2 10/21/2 14/39/2 15/40/2
f 17/41/11 18/42/11 20/43/11 19/44/11
f 19/45/12 20/46/12 24/47/12 23/48/12
f 23/49/13 24/50/13 22/51/13 21/52/13
f 21/53/14 22/54/14 18/55/14 17/56/14
f 19/57/5 23/58/5 21/59/5 17/60/5
f 24/61/9 20/62/9 18/63/9 22/64/9
f 25/65/15 26/66/15 28/67/15 27/68/15
f 27/69/16 28/70/16 32/71/16 31/72/16
f 31/73/17 32/74/17 30/75/17 29/76/17
f 29/77/18 30/78/18 26/79/18 25/80/18
f 27/81/5 31/73/5 29/76/5 25/82/5
f 32/74/9 28/83/9 26/84/9 30/75/9
f 33/85/19 34/86/19 36/87/19 35/88/19
f 35/89/20 36/90/20 40/91/20 39/92/20
f 39/93/21 40/94/21 38/95/21 37/96/21
f 37/97/22 38/98/22 34/99/22 33/100/22
f 35/101/23 39/102/23 37/103/23 33/104/23
f 40/91/20 36/90/20 42/105/20 43/106/20
f 44/107/24 43/108/24 47/109/24 48/110/24
f 38/95/25 40/94/25 43/108/25 44/107/25
f 36/87/26 34/86/26 41/111/26 42/112/26
f 34/99/22 38/98/22 44/113/22 41/114/22
f 47/115/27 46/116/27 45/117/27 48/118/27
f 42/112/28 41/111/28 45/119/28 46/120/28
f 41/114/22 44/113/22 48/121/22 45/122/22
f 43/106/20 42/105/20 46/123/20 47/124/20
f 49/125/29 50/126/29 52/127/29 51/128/29
f 51/129/30 52/130/30 56/131/30 55/132/30
f 55/133/31 56/134/31 54/135/31 53/136/31
f 53/137/32 54/138/32 50/139/32 49/140/32
f 51/141/23 55/142/23 53/143/23 49/144/23
f 56/145/27 52/146/27 50/147/27 54/148/27
f 57/149/33 58/150/33 60/151/33 59/152/33
f 59/153/34 60/154/34 64/155/34 63/156/34
f 63/157/35 64/158/35 62/159/35 61/160/35
f 61/161/36 62/162/36 58/163/36 57/164/36
f 59/165/37 63/166/37 61/167/37 57/168/37
f 64/155/34 60/154/34 66/169/34 67/170/34
f 68/171/38 67/172/38 71/173/38 72/174/38
f 62/159/39 64/158/39 67/172/39 68/171/39
f 60/151/40 58/150/40 65/175/40 66/176/40
f 58/163/36 62/162/36 68/177/36 65/178/36
f 71/179/41 70/180/41 69/181/41 72/182/41
f 66/176/42 65/175/42 69/183/42 70/184/42
f 65/178/36 68/177/36 72/185/36 69/186/36
f 67/170/34 66/169/34 70/187/34 71/188/34
f 73/189/43 74/190/43 76/191/43 75/192/43
f 75/193/44 76/194/44 80/195/44 79/196/44
f 79/197/45 80/198/45 78/199/45 77/200/45
f 77/201/46 78/202/46 74/203/46 73/204/46
f 75/205/37 79/206/37 77/207/37 73/208/37
f 80/209/41 76/210/41 74/211/41 78/212/41
f 81/213/47 82/214/47 84/215/47 83/216/47
f 83/217/48 84/218/48 88/219/48 87/220/48
f 87/221/49 88/222/49 86/223/49 85/224/49
f 85/225/50 86/226/50 82/227/50 81/228/50
f 83/229/51 87/230/51 85/231/51 81/232/51
f 88/219/48 84/218/48 90/233/48 91/234/48
f 92/235/52 91/236/52 95/237/52 96/238/52
f 86/223/53 88/222/53 91/236/53 92/235/53
f 84/215/54 82/214/54 89/239/54 90/240/54
f 82/227/50 86/226/50 92/241/50 89/242/50
f 95/243/55 94/244/55 93/245/55 96/246/55
f 90/240/56 89/239/56 93/247/56 94/248/56
f 89/242/50 92/241/50 96/249/50 93/250/50
f 91/234/48 90/233/48 94/251/48 95/252/48
f 97/253/57 98/254/57 100/255/57 99/256/57
f 99/257/58 100/258/58 104/259/58 103/260/58
f 103/261/59 104/262/59 102/263/59 101/264/59
f 101/265/60 102/266/60 98/267/60 97/268/60
f 99/269/51 103/270/51 101/271/51 97/272/51
f 104/273/55 100/274/55 98/275/55 102/276/55
