# Blender v2.81 (sub 16) OBJ File: ''
# www.blender.org
mtllib barrel.mtl
o barrel_Mesh
v 0.317260 -0.396648 1.315816
v 0.352999 0.787320 1.638300
v 0.274382 -0.391705 0.116483
v 0.661958 -0.417454 0.145196
v 0.300902 -0.391219 -0.160564
v 0.688478 -0.416968 -0.131852
v 0.335178 0.798730 0.139268
v 0.667452 0.776632 0.171037
v 0.364521 0.799268 -0.167264
v 0.696795 0.777169 -0.135496
v 0.644851 -0.408171 -2.210354
v 0.658326 -0.408551 -2.524108
v 0.326029 -0.399801 -2.222763
v 0.339503 -0.400181 -2.536517
v 0.665249 0.829019 -2.192956
v 0.680158 0.828598 -2.540101
v 0.345827 0.838279 -2.206685
v 0.360735 0.837859 -2.553830
v -1.295483 0.036006 -2.546402
v -1.349441 0.309750 -2.388413
v -1.353647 0.330642 -2.529796
v 0.545480 0.363130 -2.448034
v 0.509282 0.649132 -2.431604
v 0.512518 0.628688 -2.303926
v 0.548716 0.342686 -2.320356
v -0.444815 0.511490 -2.462270
v -0.391184 0.173139 -2.477076
v -0.438535 0.489275 -2.368287
v -0.384904 0.150925 -2.383093
v 0.579696 0.295969 -2.220589
v 0.438532 0.274498 -2.212932
v 0.420978 0.575514 -2.228165
v 0.562142 0.596985 -2.235821
v 0.574462 0.297498 -0.136965
v 0.558113 0.586155 -0.129836
v 0.430594 0.565307 -0.123781
v 0.446942 0.276650 -0.130910
v 0.540739 0.616833 -1.221571
v 0.555987 0.273451 -1.218112
v 0.447019 0.593732 -1.214041
v 0.462268 0.250350 -1.210582
v 0.581908 0.330959 -0.058936
v 0.440786 0.308966 -0.052647
v 0.422485 0.610190 -0.059518
v 0.563607 0.632183 -0.065807
v 0.572919 0.286569 1.348368
v 0.555814 0.574939 1.361925
v 0.428338 0.553639 1.366772
v 0.540293 0.629220 0.524257
v 0.556419 0.285901 0.519187
v 0.446620 0.605720 0.530486
v 0.462747 0.262401 0.525416
v -0.136797 -0.001605 0.986866
v 0.399358 0.013889 1.043252
v -0.082472 0.012734 0.466374
v 0.453682 0.028228 0.522760
v -0.153248 0.521498 0.999559
v 0.382906 0.536992 1.055945
v -0.098923 0.535837 0.479067
v 0.437231 0.551331 0.535453
v 0.304159 -0.002296 0.208253
v 0.328532 -0.002296 -0.099203
v 0.103348 -0.002296 -0.309954
v -0.201822 -0.002296 -0.265300
v -0.357181 -0.002296 0.001134
v -0.245739 -0.002296 0.288717
v 0.048585 -0.002296 0.380893
v 0.304159 0.886481 0.208253
v 0.328532 0.886481 -0.099203
v 0.103348 0.886481 -0.309954
v -0.201822 0.886481 -0.265300
v -0.357181 0.886481 0.001134
v -0.245739 0.886481 0.288717
v 0.048585 0.886481 0.380893
v 0.386901 0.442093 -0.121822
v 0.358236 0.442093 0.239785
v 0.122057 0.442093 -0.369691
v -0.236862 0.442093 -0.317172
v -0.419584 0.442093 -0.003813
v -0.288515 0.442093 0.334421
v 0.057648 0.442093 0.442832
v -0.153323 0.031716 -0.860805
v -0.232707 0.006865 -1.378826
v -0.112126 0.604568 -0.894600
v -0.191511 0.579717 -1.412621
v 0.413885 -0.014073 -0.945531
v 0.334501 -0.038924 -1.463551
v 0.455082 0.558780 -0.979326
v 0.375697 0.533929 -1.497346
v -1.429502 0.144475 0.934608
v -1.099161 0.188807 1.032292
v -1.429502 -0.267984 0.934608
v 0.056938 0.062328 -0.487680
v 0.068784 0.062328 0.955245
v 0.483820 0.062328 1.370281
v 0.549406 -0.092672 1.385898
v 0.596781 -0.092672 -0.487680
v 0.667160 -1.757733 -2.383759
v 0.548011 -1.757733 -2.525330
v 0.715104 -1.757733 -0.487680
v 0.068784 0.062328 -1.930605
v 0.501209 -0.092672 -2.409976
v 0.483820 0.062328 -2.345641
v 0.530801 0.062328 -0.487680
v 0.549406 -0.092672 -2.361258
vt 0.268353 0.000840
vt 0.268353 0.025796
vt 0.286754 0.025796
vt 0.286754 0.000840
vt 0.249951 0.000840
vt 0.249951 0.025796
vt 0.262880 0.000840
vt 0.262880 0.025796
vt 0.250395 0.025796
vt 0.250395 0.000840
vt 0.275365 0.000840
vt 0.275365 0.025796
vt 0.287850 0.000840
vt 0.287850 0.025796
vt 0.300335 0.000840
vt 0.300335 0.025796
vt 0.350860 0.021394
vt 0.338057 0.005640
vt 0.317523 0.005640
vt 0.304720 0.021394
vt 0.309290 0.041038
vt 0.327790 0.049781
vt 0.346290 0.041038
vt 0.309290 0.041038
vt 0.304720 0.021394
vt 0.317523 0.005640
vt 0.338057 0.005640
vt 0.350860 0.021394
vt 0.346290 0.041038
vt 0.327790 0.049781
vt 0.268353 0.050751
vt 0.286754 0.050751
vt 0.249951 0.050751
vt 0.262880 0.050751
vt 0.250395 0.050751
vt 0.275365 0.050751
vt 0.287850 0.050751
vt 0.300335 0.050751
vn 0.9233 -0.1395 -0.3578
vn 0.9324 0.0000 -0.3613
vn 0.8639 0.0000 0.5037
vn 0.8554 -0.1395 0.4988
vn 0.2959 -0.1395 -0.9450
vn 0.2989 0.0000 -0.9543
vn -0.5543 -0.1395 -0.8206
vn -0.5598 0.0000 -0.8287
vn -0.9871 -0.1395 -0.0782
vn -0.9969 0.0000 -0.0790
vn -0.6766 -0.1395 0.7230
vn -0.6833 0.0000 0.7301
vn 0.1434 -0.1395 0.9798
vn 0.1448 0.0000 0.9895
vn 0.0000 -1.0000 0.0000
vn 0.0000 1.0000 -0.0000
vn 0.9233 0.1395 -0.3578
vn 0.8554 0.1395 0.4988
vn 0.2959 0.1395 -0.9450
vn -0.5543 0.1395 -0.8206
vn -0.9871 0.1395 -0.0782
vn -0.6766 0.1395 0.7230
vn 0.1434 0.1395 0.9798
usemtl TT_RTS_Buildings_mat
s 1
f 62/1/1 75/2/2 76/3/3
f 76/3/3 61/4/4 62/1/1
f 63/5/5 77/6/6 75/2/2
f 75/2/2 62/1/1 63/5/5
f 64/7/7 78/8/8 77/9/6
f 77/9/6 63/10/5 64/7/7
f 65/11/9 79/12/10 78/8/8
f 78/8/8 64/7/7 65/11/9
f 66/13/11 80/14/12 79/12/10
f 79/12/10 65/11/9 66/13/11
f 67/15/13 81/16/14 80/14/12
f 80/14/12 66/13/11 67/15/13
f 61/4/4 76/3/3 81/16/14
f 81/16/14 67/15/13 61/4/4
f 66/17/15 65/18/15 64/19/15
f 64/19/15 63/20/15 62/21/15
f 64/19/15 62/21/15 61/22/15
f 66/17/15 64/19/15 61/22/15
f 67/23/15 66/17/15 61/22/15
f 69/24/16 70/25/16 71/26/16
f 71/26/16 72/27/16 73/28/16
f 71/26/16 73/28/16 74/29/16
f 69/24/16 71/26/16 74/29/16
f 68/30/16 69/24/16 74/29/16
f 69/31/17 68/32/18 76/3/3
f 76/3/3 75/2/2 69/31/17
f 70/33/19 69/31/17 75/2/2
f 75/2/2 77/6/6 70/33/19
f 71/34/20 70/35/19 77/9/6
f 77/9/6 78/8/8 71/34/20
f 72/36/21 71/34/20 78/8/8
f 78/8/8 79/12/10 72/36/21
f 73/37/22 72/36/21 79/12/10
f 79/12/10 80/14/12 73/37/22
f 74/38/23 73/37/22 80/14/12
f 80/14/12 81/16/14 74/38/23
f 68/32/18 74/38/23 81/16/14
f 81/16/14 76/3/3 68/32/18
