# Blender v2.80 (sub 75) OBJ File: 'barrel.blend'
# www.blender.org
g Barrel
v -0.000000 1.100000 -0.291543
v 0.171364 1.100000 -0.235863
v 0.277274 1.100000 -0.090092
v 0.277274 1.100000 0.090092
v 0.171364 1.100000 0.235863
v -0.000000 1.100000 0.291543
v -0.171365 1.100000 0.235863
v -0.277274 1.100000 0.090092
v -0.277274 1.100000 -0.090092
v -0.171364 1.100000 -0.235863
v 0.000000 1.100000 -0.327142
v 0.192289 1.100000 -0.264663
v 0.311130 1.100000 -0.101092
v 0.311130 1.100000 0.101092
v 0.192289 1.100000 0.264663
v -0.000000 1.100000 0.327142
v -0.192289 1.100000 0.264663
v -0.311130 1.100000 0.101092
v -0.311130 1.100000 -0.101092
v -0.192289 1.100000 -0.264663
v 0.000000 1.068686 -0.000000
v -0.000000 1.068686 -0.291543
v 0.171364 1.068686 -0.235863
v 0.277274 1.068686 -0.090092
v 0.277274 1.068686 0.090092
v 0.171364 1.068686 0.235863
v -0.000000 1.068686 0.291543
v -0.171365 1.068686 0.235863
v -0.277274 1.068686 0.090092
v -0.277274 1.068686 -0.090092
v -0.171364 1.068686 -0.235863
v -0.000000 0.000000 -0.291543
v 0.171364 0.000000 -0.235863
v 0.277274 0.000000 -0.090092
v 0.277274 0.000000 0.090092
v 0.171364 0.000000 0.235863
v -0.000000 0.000000 0.291543
v -0.171365 0.000000 0.235863
v -0.277274 0.000000 0.090092
v -0.277274 0.000000 -0.090092
v -0.171364 0.000000 -0.235863
v 0.000000 0.000000 -0.327142
v 0.192289 0.000000 -0.264663
v 0.311130 0.000000 -0.101092
v 0.311130 0.000000 0.101092
v 0.192289 0.000000 0.264663
v -0.000000 0.000000 0.327142
v -0.192289 0.000000 0.264663
v -0.311130 0.000000 0.101092
v -0.311130 0.000000 -0.101092
v -0.192289 0.000000 -0.264663
v 0.000000 0.031314 -0.000000
v -0.000000 0.031314 -0.291543
v 0.171364 0.031314 -0.235863
v 0.277274 0.031314 -0.090092
v 0.277274 0.031314 0.090092
v 0.171364 0.031314 0.235863
v -0.000000 0.031314 0.291543
v -0.171365 0.031314 0.235863
v -0.277274 0.031314 0.090092
v -0.277274 0.031314 -0.090092
v -0.171364 0.031314 -0.235863
v 0.000000 0.732989 -0.422098
v 0.248103 0.732989 -0.341484
v 0.401439 0.732989 -0.130435
v 0.401439 0.732989 0.130435
v 0.248103 0.732989 0.341484
v -0.000000 0.732989 0.422098
v -0.248103 0.732989 0.341484
v -0.401439 0.732989 0.130435
v -0.401439 0.732989 -0.130435
v -0.248103 0.732989 -0.341484
v 0.000000 0.367011 -0.422098
v 0.248103 0.367011 -0.341484
v 0.401439 0.367011 -0.130435
v 0.401439 0.367011 0.130435
v 0.248103 0.367011 0.341484
v -0.000000 0.367011 0.422098
v -0.248103 0.367011 0.341484
v -0.401439 0.367011 0.130435
v -0.401439 0.367011 -0.130435
v -0.248103 0.367011 -0.341484
v -0.243985 0.770461 0.335816
v -0.249809 0.695029 0.343832
v -0.263065 0.773410 -0.362078
v -0.000000 0.770461 0.415091
v -0.000000 0.695029 0.425000
v -0.269345 0.692079 -0.370721
v 0.243984 0.770461 0.335816
v 0.249809 0.695029 0.343832
v -0.425648 0.773410 -0.138302
v 0.394775 0.770461 0.128270
v 0.404199 0.695029 0.131332
v -0.435809 0.692079 -0.141603
v 0.394775 0.770461 -0.128270
v 0.404199 0.695029 -0.131332
v -0.425648 0.773410 0.138301
v 0.243984 0.770461 -0.335816
v 0.249809 0.695029 -0.343832
v -0.435809 0.692079 0.141603
v 0.000000 0.695029 -0.425000
v 0.000000 0.770461 -0.415091
v -0.000000 0.773410 -0.447553
v -0.404199 0.695029 0.131332
v -0.394775 0.770461 0.128270
v -0.000000 0.692079 -0.458237
v -0.404199 0.695029 -0.131332
v -0.394775 0.770461 -0.128270
v 0.269345 0.692079 -0.370721
v -0.249809 0.695029 -0.343832
v -0.243984 0.770461 -0.335816
v 0.263065 0.773410 -0.362078
v 0.000000 0.404971 -0.425000
v 0.000000 0.329539 -0.415091
v 0.435809 0.692079 -0.141603
v 0.243984 0.329539 -0.335816
v 0.249809 0.404971 -0.343832
v 0.425648 0.773410 -0.138301
v 0.394775 0.329539 -0.128270
v 0.404199 0.404971 -0.131332
v 0.435809 0.692079 0.141603
v 0.394775 0.329539 0.128270
v 0.404199 0.404971 0.131332
v 0.425648 0.773410 0.138301
v 0.243984 0.329539 0.335816
v 0.249809 0.404971 0.343832
v 0.269345 0.692079 0.370721
v -0.000000 0.329539 0.415091
v -0.000000 0.404971 0.425000
v 0.263065 0.773410 0.362078
v -0.243985 0.329539 0.335816
v -0.249809 0.404971 0.343832
v -0.000000 0.692079 0.458237
v -0.394775 0.329539 0.128270
v -0.404199 0.404971 0.131332
v -0.000000 0.773410 0.447553
v -0.394775 0.329539 -0.128270
v -0.404199 0.404971 -0.131332
v -0.269345 0.692079 0.370721
v -0.243984 0.329539 -0.335816
v -0.249809 0.404971 -0.343832
v -0.263065 0.773410 0.362078
v -0.000000 0.407921 -0.458237
v -0.000000 0.326590 -0.447553
v 0.263065 0.326590 -0.362078
v 0.269345 0.407921 -0.370721
v 0.425648 0.326590 -0.138301
v 0.435809 0.407921 -0.141603
v 0.425648 0.326590 0.138301
v 0.435809 0.407921 0.141603
v 0.263065 0.326590 0.362078
v 0.269345 0.407921 0.370721
v -0.000000 0.326590 0.447553
v -0.000000 0.407921 0.458237
v -0.263065 0.326590 0.362078
v -0.269345 0.407921 0.370721
v -0.425648 0.326590 0.138301
v -0.435809 0.407921 0.141603
v -0.425648 0.326590 -0.138302
v -0.435809 0.407921 -0.141603
v -0.263065 0.326590 -0.362078
v -0.269345 0.407921 -0.370721
vt 0.298562 0.382004
vt 0.300318 0.294802
vt 0.440962 0.301471
vt 0.439742 0.384282
vt 0.298281 0.468234
vt 0.440485 0.467755
vt 0.298819 0.554575
vt 0.442617 0.551928
vt 0.299844 0.642061
vt 0.446090 0.636937
vt 0.301321 0.732160
vt 0.451385 0.722998
vt 0.303701 0.827567
vt 0.459778 0.810325
vt 0.309238 0.934197
vt 0.474022 0.898800
vt 0.310138 0.110988
vt 0.323239 0.008286
vt 0.474022 0.051563
vt 0.457235 0.133527
vt 0.302858 0.205311
vt 0.176555 0.295801
vt 0.175041 0.204942
vt 0.172681 0.108314
vt 0.671840 0.304878
vt 0.715461 0.364673
vt 0.703364 0.369111
vt 0.664662 0.315578
vt 0.672215 0.498652
vt 0.715604 0.438689
vt 0.728862 0.443240
vt 0.680265 0.510127
vt 0.728862 0.360562
vt 0.680265 0.293675
vt 0.601403 0.282142
vt 0.601635 0.268127
vt 0.531055 0.305150
vt 0.523004 0.293675
vt 0.487665 0.365114
vt 0.474408 0.360563
vt 0.487808 0.439129
vt 0.474408 0.443239
vt 0.531429 0.498924
vt 0.523004 0.510127
vt 0.601866 0.521660
vt 0.601635 0.535675
vt 0.601384 0.508784
vt 0.664256 0.488519
vt 0.500060 0.368633
vt 0.499905 0.434691
vt 0.601886 0.295018
vt 0.703209 0.435169
vt 0.538607 0.488224
vt 0.539014 0.315283
vt 0.601635 0.401901
vt 0.177565 0.383774
vt 0.178225 0.470350
vt 0.178319 0.556571
vt 0.177354 0.643419
vt 0.174458 0.732205
vt 0.168019 0.825138
vt 0.155294 0.926024
vt 0.167004 0.000193
vt 0.531055 0.230718
vt 0.539014 0.220585
vt 0.601886 0.240850
vt 0.601403 0.253726
vt 0.715461 0.171195
vt 0.728862 0.175305
vt 0.680265 0.242193
vt 0.671840 0.230990
vt 0.601635 0.267741
vt 0.523004 0.242193
vt 0.474408 0.175306
vt 0.487665 0.170755
vt 0.474408 0.092628
vt 0.487808 0.096739
vt 0.523004 0.025741
vt 0.531429 0.036944
vt 0.601635 0.000193
vt 0.601866 0.014208
vt 0.680265 0.025741
vt 0.672215 0.037216
vt 0.728862 0.092629
vt 0.715604 0.097180
vt 0.703364 0.166757
vt 0.703209 0.100699
vt 0.601383 0.027084
vt 0.538607 0.047644
vt 0.500060 0.167235
vt 0.664662 0.220290
vt 0.664256 0.047349
vt 0.499905 0.101177
vt 0.601635 0.133967
vt 0.448892 0.217915
vt 0.029065 0.301151
vt 0.023472 0.214290
vt 0.014785 0.125937
vt 0.000193 0.036354
vt 0.007947 0.883587
vt 0.024430 0.803485
vt 0.032497 0.721334
vt 0.035811 0.638582
vt 0.036383 0.555287
vt 0.035242 0.471391
vt 0.032813 0.386754
vt 0.878996 0.112684
vt 0.910006 0.114776
vt 0.908026 0.212610
vt 0.877267 0.211684
vt 0.881715 0.000193
vt 0.919869 0.004194
vt 0.908865 0.308359
vt 0.878708 0.308253
vt 0.911551 0.402726
vt 0.882357 0.403011
vt 0.843594 0.111683
vt 0.813456 0.110461
vt 0.815327 0.000193
vt 0.852606 0.003872
vt 0.949252 0.000193
vt 0.987406 0.004194
vt 0.977543 0.114776
vt 0.946533 0.112684
vt 0.949894 0.403012
vt 0.979088 0.402727
vt 0.987219 0.506182
vt 0.952088 0.509072
vt 0.731657 0.110935
vt 0.733961 0.004304
vt 0.748388 0.000193
vt 0.744337 0.111390
vt 0.919682 0.506182
vt 0.884551 0.509072
vt 0.975563 0.212610
vt 0.944804 0.211684
vt 0.946245 0.308253
vt 0.976402 0.308359
vt 0.809319 0.305375
vt 0.809792 0.208489
vt 0.840478 0.208045
vt 0.840267 0.304699
vt 0.851958 0.505973
vt 0.816262 0.509051
vt 0.813559 0.401263
vt 0.843257 0.400832
vt 0.747090 0.508864
vt 0.746474 0.401594
vt 0.776447 0.399734
vt 0.783906 0.506742
vt 0.744213 0.305488
vt 0.774190 0.304601
vt 0.784997 0.004831
vt 0.774600 0.111786
vt 0.741303 0.209089
vt 0.772336 0.208933
vt 0.921905 0.115527
vt 0.919821 0.212779
vt 0.803669 0.505214
vt 0.801893 0.401607
vt 0.939714 0.505245
vt 0.938396 0.403298
vt 0.729247 0.209056
vt 0.923396 0.402155
vt 0.932271 0.500987
vt 0.934372 0.308527
vt 0.932656 0.211637
vt 0.866836 0.308527
vt 0.865119 0.211637
vt 0.852026 0.304605
vt 0.855305 0.400206
vt 0.796965 0.010129
vt 0.786283 0.112581
vt 0.797351 0.305568
vt 0.990933 0.402156
vt 0.999807 0.500988
vt 0.933704 0.112394
vt 0.934713 0.004529
vt 0.784091 0.209048
vt 0.734840 0.401704
vt 0.732268 0.305758
vt 0.920459 0.308223
vt 0.788540 0.399230
vt 0.796965 0.501458
vt 0.866167 0.112394
vt 0.867176 0.004529
vt 0.999807 0.009590
vt 0.989442 0.115526
vt 0.987358 0.212778
vt 0.987996 0.308223
vt 0.870859 0.403297
vt 0.864734 0.009059
vt 0.855261 0.112446
vt 0.800816 0.110091
vt 0.801128 0.004526
vt 0.932271 0.009590
vt 0.797691 0.208200
vt 0.864734 0.500641
vt 0.852249 0.208343
vt 0.785829 0.304418
vt 0.872178 0.505245
vt 0.734636 0.504808
vn 0.3001 0.2389 -0.9235
vn 0.7856 0.2389 -0.5708
vn 0.9710 0.2389 0.0000
vn 0.7856 0.2389 0.5708
vn 0.3001 0.2389 0.9235
vn -0.3001 0.2389 0.9235
vn -0.7856 0.2389 0.5708
vn -0.9710 0.2389 0.0000
vn -0.3090 0.0000 -0.9511
vn -0.8090 0.0000 -0.5878
vn -1.0000 0.0000 0.0000
vn 0.0000 1.0000 0.0000
vn 0.3090 0.0000 0.9511
vn 0.8090 0.0000 -0.5878
vn -0.3090 0.0000 0.9511
vn 1.0000 0.0000 0.0000
vn -0.8090 0.0000 0.5878
vn 0.8090 0.0000 0.5878
vn 0.3090 0.0000 -0.9511
vn 0.0000 -1.0000 0.0000
vn -0.7856 0.2389 -0.5708
vn -0.3001 -0.2389 -0.9235
vn -0.7856 -0.2389 -0.5708
vn -0.9710 -0.2389 0.0000
vn -0.7856 -0.2389 0.5708
vn -0.3001 -0.2389 0.9235
vn 0.3001 -0.2389 0.9235
vn 0.7856 -0.2389 0.5708
vn 0.9710 -0.2389 0.0000
vn 0.7856 -0.2389 -0.5708
vn 0.3001 -0.2389 -0.9235
vn -0.3001 0.2389 -0.9235
vn -0.3066 -0.1240 0.9437
vn -0.8028 -0.1240 0.5833
vn 0.3066 -0.1240 0.9437
vn 0.8028 -0.1240 0.5833
vn 0.9923 0.1240 0.0000
vn 0.8028 -0.1240 -0.5833
vn -0.9923 -0.1240 0.0000
vn 0.0929 -0.9957 0.0000
vn 0.9923 -0.1240 0.0000
vn 0.3066 -0.1240 -0.9437
vn -0.8028 -0.1240 -0.5833
vn 0.3066 0.1240 0.9437
vn -0.8028 0.1240 0.5833
vn -0.3066 0.1240 0.9437
vn -0.3066 -0.1240 -0.9437
vn 0.8028 0.1240 -0.5833
vn 0.3066 0.1240 -0.9437
vn -0.9923 0.1240 0.0000
vn -0.3066 0.1240 -0.9437
vn -0.8028 0.1240 -0.5833
vn 0.8028 0.1240 0.5833
vn 0.0294 -0.9955 -0.0905
vn 0.0752 -0.9957 -0.0546
vn 0.0929 0.9957 0.0000
vn 0.0752 -0.9957 0.0546
vn -0.0951 -0.9955 -0.0000
vn 0.0287 0.9957 0.0884
vn -0.0287 0.9957 -0.0884
vn 0.0294 0.9955 -0.0905
vn 0.0951 0.9955 0.0000
vn 0.0287 -0.9957 -0.0884
vn 0.0951 -0.9955 0.0000
vn -0.0752 0.9957 0.0546
vn 0.0769 0.9955 0.0559
vn -0.0287 -0.9957 0.0884
vn 0.0287 -0.9957 0.0884
vn -0.0294 -0.9955 -0.0905
vn -0.0769 0.9955 0.0559
vn 0.0752 0.9957 -0.0546
vn -0.0769 -0.9955 0.0559
vn 0.0294 -0.9955 0.0904
vn -0.0752 0.9957 -0.0546
vn -0.0951 0.9955 -0.0000
vn -0.0287 0.9957 0.0884
vn -0.0929 -0.9957 0.0000
vn 0.0769 -0.9955 -0.0559
vn -0.0752 -0.9957 -0.0546
vn 0.0769 0.9955 -0.0559
vn 0.0752 0.9957 0.0546
vn -0.0287 -0.9957 -0.0884
vn -0.0769 0.9955 -0.0559
vn -0.0294 -0.9955 0.0904
vn 0.0294 0.9955 0.0905
vn -0.0769 -0.9955 -0.0559
vn -0.0294 0.9955 0.0905
vn -0.0294 0.9955 -0.0905
vn 0.0287 0.9957 -0.0884
vn 0.0769 -0.9955 0.0559
vn -0.0929 0.9957 -0.0000
vn -0.0752 -0.9957 0.0546
s off
f 64/1/1 63/2/1 11/3/1 12/4/1
f 65/5/2 64/1/2 12/4/2 13/6/2
f 66/7/3 65/5/3 13/6/3 14/8/3
f 67/9/4 66/7/4 14/8/4 15/10/4
f 68/11/5 67/9/5 15/10/5 16/12/5
f 69/13/6 68/11/6 16/12/6 17/14/6
f 70/15/7 69/13/7 17/14/7 18/16/7
f 71/17/8 70/18/8 18/19/8 19/20/8
f 72/21/9 63/2/9 73/22/9 82/23/9
f 71/17/10 72/21/10 82/23/10 81/24/10
f 4/25/11 3/26/11 24/27/11 25/28/11
f 1/29/12 2/30/12 12/31/12 11/32/12
f 2/30/12 3/26/12 13/33/12 12/31/12
f 3/26/12 4/25/12 14/34/12 13/33/12
f 4/25/12 5/35/12 15/36/12 14/34/12
f 5/35/12 6/37/12 16/38/12 15/36/12
f 6/37/12 7/39/12 17/40/12 16/38/12
f 7/39/12 8/41/12 18/42/12 17/40/12
f 8/41/12 9/43/12 19/44/12 18/42/12
f 9/43/12 10/45/12 20/46/12 19/44/12
f 10/45/12 1/29/12 11/32/12 20/46/12
f 1/29/13 10/45/13 31/47/13 22/48/13
f 8/41/14 7/39/14 28/49/14 29/50/14
f 5/35/10 4/25/10 25/28/10 26/51/10
f 2/30/15 1/29/15 22/48/15 23/52/15
f 9/43/16 8/41/16 29/50/16 30/53/16
f 6/37/9 5/35/9 26/51/9 27/54/9
f 3/26/17 2/30/17 23/52/17 24/27/17
f 10/45/18 9/43/18 30/53/18 31/47/18
f 7/39/19 6/37/19 27/54/19 28/49/19
f 21/55/12 23/52/12 22/48/12
f 21/55/12 24/27/12 23/52/12
f 21/55/12 25/28/12 24/27/12
f 21/55/12 26/51/12 25/28/12
f 21/55/12 27/54/12 26/51/12
f 21/55/12 28/49/12 27/54/12
f 21/55/12 29/50/12 28/49/12
f 21/55/12 30/53/12 29/50/12
f 21/55/12 31/47/12 30/53/12
f 21/55/12 22/48/12 31/47/12
f 63/2/19 64/1/19 74/56/19 73/22/19
f 64/1/14 65/5/14 75/57/14 74/56/14
f 65/5/16 66/7/16 76/58/16 75/57/16
f 66/7/18 67/9/18 77/59/18 76/58/18
f 67/9/13 68/11/13 78/60/13 77/59/13
f 68/11/15 69/13/15 79/61/15 78/60/15
f 69/13/17 70/15/17 80/62/17 79/61/17
f 70/18/11 71/17/11 81/24/11 80/63/11
f 35/64/11 56/65/11 55/66/11 34/67/11
f 32/68/20 42/69/20 43/70/20 33/71/20
f 33/71/20 43/70/20 44/72/20 34/67/20
f 34/67/20 44/72/20 45/73/20 35/64/20
f 35/64/20 45/73/20 46/74/20 36/75/20
f 36/75/20 46/74/20 47/76/20 37/77/20
f 37/77/20 47/76/20 48/78/20 38/79/20
f 38/79/20 48/78/20 49/80/20 39/81/20
f 39/81/20 49/80/20 50/82/20 40/83/20
f 40/83/20 50/82/20 51/84/20 41/85/20
f 41/85/20 51/84/20 42/69/20 32/68/20
f 32/68/13 53/86/13 62/87/13 41/85/13
f 39/81/14 60/88/14 59/89/14 38/79/14
f 36/75/10 57/90/10 56/65/10 35/64/10
f 33/71/15 54/91/15 53/86/15 32/68/15
f 40/83/16 61/92/16 60/88/16 39/81/16
f 37/77/9 58/93/9 57/90/9 36/75/9
f 34/67/17 55/66/17 54/91/17 33/71/17
f 41/85/18 62/87/18 61/92/18 40/83/18
f 38/79/19 59/89/19 58/93/19 37/77/19
f 52/94/20 53/86/20 54/91/20
f 52/94/20 54/91/20 55/66/20
f 52/94/20 55/66/20 56/65/20
f 52/94/20 56/65/20 57/90/20
f 52/94/20 57/90/20 58/93/20
f 52/94/20 58/93/20 59/89/20
f 52/94/20 59/89/20 60/88/20
f 52/94/20 60/88/20 61/92/20
f 52/94/20 61/92/20 62/87/20
f 52/94/20 62/87/20 53/86/20
f 72/21/21 71/17/21 19/20/21 20/95/21
f 82/23/22 73/22/22 42/96/22 51/97/22
f 81/24/23 82/23/23 51/97/23 50/98/23
f 80/63/24 81/24/24 50/98/24 49/99/24
f 79/61/25 80/62/25 49/100/25 48/101/25
f 78/60/26 79/61/26 48/101/26 47/102/26
f 77/59/27 78/60/27 47/102/27 46/103/27
f 76/58/28 77/59/28 46/103/28 45/104/28
f 75/57/29 76/58/29 45/104/29 44/105/29
f 74/56/30 75/57/30 44/105/30 43/106/30
f 73/22/31 74/56/31 43/106/31 42/96/31
f 72/21/32 20/95/32 11/3/32 63/2/32
f 156/107/33 155/108/33 153/109/33 154/110/33
f 158/111/34 157/112/34 155/108/34 156/107/34
f 154/110/35 153/109/35 151/113/35 152/114/35
f 152/114/36 151/113/36 149/115/36 150/116/36
f 124/117/37 121/118/37 115/119/37 118/120/37
f 148/121/38 147/122/38 145/123/38 146/124/38
f 160/125/39 159/126/39 157/127/39 158/128/39
f 107/129/40 104/130/40 100/131/40 94/132/40
f 150/116/41 149/115/41 147/133/41 148/134/41
f 146/124/42 145/123/42 144/135/42 143/136/42
f 162/137/43 161/138/43 159/126/43 160/125/43
f 133/139/44 127/140/44 130/141/44 136/142/44
f 97/143/45 100/144/45 139/145/45 142/146/45
f 142/146/46 139/145/46 133/139/46 136/142/46
f 143/136/47 144/135/47 161/138/47 162/137/47
f 115/147/48 109/148/48 112/149/48 118/150/48
f 109/148/49 106/151/49 103/152/49 112/149/49
f 94/132/50 100/131/50 97/153/50 91/154/50
f 103/152/51 106/151/51 88/155/51 85/156/51
f 88/155/52 94/132/52 91/154/52 85/156/52
f 127/140/53 121/118/53 124/117/53 130/141/53
f 131/157/54 128/158/54 153/109/54 155/108/54
f 104/159/55 84/160/55 139/145/55 100/144/55
f 135/161/56 138/162/56 160/125/56 158/128/56
f 110/163/57 107/129/57 94/132/57 88/155/57
f 122/164/58 119/165/58 147/133/58 149/115/58
f 141/166/59 113/167/59 143/136/59 162/137/59
f 126/168/60 129/169/60 154/110/60 152/114/60
f 86/170/61 83/171/61 142/146/61 136/142/61
f 105/172/62 108/173/62 91/154/62 97/153/62
f 84/160/63 87/174/63 133/139/63 139/145/63
f 137/175/64 134/176/64 157/127/64 159/126/64
f 117/177/65 120/178/65 148/121/65 146/124/65
f 108/173/66 111/179/66 85/156/66 91/154/66
f 99/180/67 101/181/67 106/151/67 109/148/67
f 101/181/68 110/163/68 88/155/68 106/151/68
f 128/158/69 125/182/69 151/113/69 153/109/69
f 98/183/70 95/184/70 118/150/70 112/149/70
f 132/185/71 135/186/71 158/111/71 156/107/71
f 119/187/72 116/188/72 145/123/72 147/122/72
f 114/189/73 140/190/73 161/138/73 144/135/73
f 123/191/74 126/168/74 152/114/74 150/116/74
f 95/192/75 92/193/75 124/117/75 118/120/75
f 113/167/76 117/177/76 146/124/76 143/136/76
f 93/194/77 96/195/77 115/119/77 121/118/77
f 134/196/78 131/157/78 155/108/78 157/112/78
f 90/197/79 93/194/79 121/118/79 127/140/79
f 83/171/80 105/198/80 97/143/80 142/146/80
f 138/162/81 141/166/81 162/137/81 160/125/81
f 87/174/82 90/197/82 127/140/82 133/139/82
f 92/193/83 89/199/83 130/141/83 124/117/83
f 116/188/84 114/189/84 144/135/84 145/123/84
f 111/179/85 102/200/85 103/152/85 85/156/85
f 125/182/86 122/164/86 149/115/86 151/113/86
f 102/200/87 98/183/87 112/149/87 103/152/87
f 89/199/88 86/170/88 136/142/88 130/141/88
f 129/169/89 132/185/89 156/107/89 154/110/89
f 140/190/90 137/175/90 159/126/90 161/138/90
f 120/201/91 123/191/91 150/116/91 148/134/91
f 96/202/92 99/180/92 109/148/92 115/147/92
