# Blender v2.81 (sub 16) OBJ File: ''
# www.blender.org
mtllib bridgeCollider.mtl
o Cube
v 1.000000 0.621972 -0.503094
v 1.000000 0.072161 -1.607615
v 1.000000 0.415587 -1.139979
v 1.000000 0.529402 -0.838894
v -1.000000 0.621972 -0.503094
v -1.000000 0.072161 -1.607615
v -1.000000 0.415587 -1.139979
v -1.000000 0.529402 -0.838894
v 1.000000 0.621972 0.503094
v 1.000000 0.072161 1.607615
v 1.000000 0.415587 1.139979
v 1.000000 0.529402 0.838894
v -1.000000 0.621972 0.503094
v -1.000000 0.072161 1.607615
v -1.000000 0.415587 1.139979
v -1.000000 0.529402 0.838894
v 1.000000 0.680202 0.000000
v 1.000000 0.072161 -1.607615
v -1.000000 0.680202 0.000000
v -1.000000 0.072161 -1.607615
vt 0.000000 0.000000
vt 0.000000 0.000000
vt 0.000000 0.000000
vt 0.000000 0.000000
vt 0.000000 0.000000
vt 0.000000 0.000000
vt 0.000000 0.000000
vt 0.000000 0.000000
vt 0.000000 0.000000
vt 0.000000 0.000000
vt 0.000000 0.000000
vt 0.000000 0.000000
vt 0.000000 0.000000
vt 0.000000 0.000000
vt 0.000000 0.000000
vt 0.000000 0.000000
vt 0.000000 0.000000
vt 0.000000 0.000000
vt 0.000000 0.000000
vt 0.000000 0.000000
vn 0.0000 -1.0000 0.0000
vn 1.0000 -0.0000 0.0000
vn 0.0000 0.9934 -0.1150
vn 0.0000 0.9640 -0.2658
vn 0.0000 0.9354 -0.3536
vn 0.0000 0.8060 -0.5919
vn -1.0000 0.0000 0.0000
vn 0.0000 0.9934 0.1150
vn 0.0000 0.9640 0.2658
vn 0.0000 0.9354 0.3536
vn 0.0000 0.8060 0.5919
usemtl Material
s off
f 20/1/1 18/2/1 10/3/1 14/4/1
f 3/5/2 4/6/2 1/7/2 17/8/2 9/9/2 12/10/2 11/11/2 10/3/2 18/2/2
f 1/7/3 5/12/3 19/13/3 17/8/3
f 4/6/4 8/14/4 5/12/4 1/7/4
f 4/6/5 3/5/5 7/15/5 8/14/5
f 3/5/6 2/16/6 6/17/6 7/15/6
f 7/15/7 20/1/7 14/4/7 15/18/7 16/19/7 13/20/7 19/13/7 5/12/7 8/14/7
f 9/9/8 17/8/8 19/13/8 13/20/8
f 12/10/9 9/9/9 13/20/9 16/19/9
f 12/10/10 16/19/10 15/18/10 11/11/10
f 11/11/11 15/18/11 14/4/11 10/3/11
