# Blender v2.81 (sub 16) OBJ File: 'wheet.blend'
# www.blender.org
mtllib wheet.mtl
o Cube_Cube.001
v -0.028886 0.834823 0.044581
v -0.070000 0.971693 0.081378
v -0.028886 0.831693 -0.008213
v -0.070000 0.971693 -0.058622
v 0.028886 0.834823 0.044581
v 0.070000 0.971693 0.081378
v 0.028886 0.831693 -0.008213
v 0.070000 0.971693 -0.058622
v -0.051106 0.963153 0.060968
v -0.063882 1.089848 0.081837
v -0.051106 0.969648 -0.041037
v -0.063882 1.097966 -0.045670
v 0.051106 0.963153 0.060968
v 0.063882 1.089848 0.081837
v 0.051106 0.969648 -0.041037
v 0.063882 1.097966 -0.045670
v -0.047994 1.075455 0.063345
v -0.059993 1.191161 0.097295
v -0.047994 1.093181 -0.030992
v -0.059993 1.213319 -0.020627
v 0.047994 1.075455 0.063345
v 0.059993 1.191161 0.097295
v 0.047994 1.093181 -0.030992
v 0.059993 1.213319 -0.020627
v -0.043358 1.179606 0.077813
v -0.054197 1.279080 0.122218
v -0.043358 1.206899 -0.004495
v -0.054197 1.313196 0.019333
v 0.043358 1.179606 0.077813
v 0.054197 1.279080 0.122218
v 0.043358 1.206899 -0.004495
v 0.054197 1.313196 0.019333
v -0.038187 1.269801 0.096335
v -0.047734 1.348536 0.151163
v -0.038187 1.306992 0.029628
v -0.047734 1.395025 0.067778
v 0.038187 1.269801 0.096335
v 0.047734 1.348536 0.151163
v 0.038187 1.306992 0.029628
v 0.047734 1.395025 0.067778
v -0.010868 1.363304 0.117415
v -0.007193 1.388824 0.127436
v -0.010868 1.373888 0.098430
v -0.007193 1.395829 0.114870
v 0.010868 1.363304 0.117415
v 0.007193 1.388824 0.127436
v 0.010868 1.373888 0.098430
v 0.007193 1.395829 0.114870
v -0.013554 0.018115 0.013554
v -0.013554 0.274781 0.013554
v -0.013554 0.018115 -0.013554
v -0.013554 0.274781 -0.013554
v 0.013554 0.018115 0.013554
v 0.013554 0.274781 0.013554
v 0.013554 0.018115 -0.013554
v 0.013554 0.274781 -0.013554
v -0.013554 0.570859 -0.024170
v -0.013554 0.570859 -0.051279
v 0.013554 0.570859 -0.024170
v 0.013554 0.570859 -0.051279
v -0.013554 0.837215 0.032988
v -0.013554 0.837215 0.005879
v 0.013554 0.837215 0.032988
v 0.013554 0.837215 0.005879
vt 0.625000 0.000000
vt 0.375000 0.250000
vt 0.375000 0.000000
vt 0.625000 0.250000
vt 0.375000 0.500000
vt 0.625000 0.500000
vt 0.375000 0.750000
vt 0.625000 0.750000
vt 0.375000 1.000000
vt 0.125000 0.750000
vt 0.125000 0.500000
vt 0.875000 0.500000
vt 0.625000 1.000000
vt 0.875000 0.750000
vt 0.625000 0.000000
vt 0.375000 0.250000
vt 0.375000 0.000000
vt 0.625000 0.250000
vt 0.375000 0.500000
vt 0.625000 0.500000
vt 0.375000 0.750000
vt 0.625000 0.750000
vt 0.375000 1.000000
vt 0.625000 0.250000
vt 0.375000 0.500000
vt 0.375000 0.250000
vt 0.875000 0.500000
vt 0.625000 1.000000
vt 0.625000 0.000000
vt 0.375000 0.000000
vt 0.875000 0.750000
vt 0.625000 0.500000
vt 0.375000 0.750000
vt 0.625000 0.750000
vt 0.375000 1.000000
vt 0.875000 0.500000
vt 0.625000 1.000000
vt 0.875000 0.750000
vt 0.625000 0.250000
vt 0.375000 0.500000
vt 0.375000 0.250000
vt 0.625000 0.000000
vt 0.375000 0.000000
vt 0.625000 0.500000
vt 0.375000 0.750000
vt 0.625000 0.750000
vt 0.375000 1.000000
vt 0.875000 0.500000
vt 0.625000 1.000000
vt 0.875000 0.750000
vt 0.625000 0.250000
vt 0.375000 0.500000
vt 0.375000 0.250000
vt 0.625000 0.000000
vt 0.375000 0.000000
vt 0.625000 0.500000
vt 0.375000 0.750000
vt 0.625000 0.750000
vt 0.375000 1.000000
vt 0.875000 0.500000
vt 0.625000 1.000000
vt 0.875000 0.750000
vt 0.625000 0.250000
vt 0.375000 0.500000
vt 0.375000 0.250000
vt 0.625000 0.000000
vt 0.375000 0.000000
vt 0.625000 0.500000
vt 0.375000 0.750000
vt 0.625000 0.750000
vt 0.375000 1.000000
vt 0.875000 0.500000
vt 0.625000 1.000000
vt 0.875000 0.750000
vt 0.625000 0.000000
vt 0.375000 0.250000
vt 0.375000 0.000000
vt 0.625000 0.250000
vt 0.375000 0.500000
vt 0.625000 0.500000
vt 0.375000 0.750000
vt 0.625000 0.750000
vt 0.375000 1.000000
vt 0.125000 0.750000
vt 0.125000 0.500000
vt 0.625000 0.750000
vt 0.625000 1.000000
vt 0.625000 0.500000
vt 0.625000 0.000000
vt 0.625000 0.250000
vt 0.625000 1.000000
vt 0.625000 1.000000
vt 0.625000 0.500000
vt 0.625000 0.750000
vt 0.625000 0.250000
vt 0.625000 0.000000
vn -0.9563 -0.2919 0.0173
vn 0.0000 -0.3388 -0.9409
vn 0.9609 -0.2763 0.0164
vn 0.0000 -0.2596 0.9657
vn 0.0000 -0.9982 0.0592
vn 0.0000 1.0000 0.0000
vn -0.9595 -0.2818 0.0000
vn 0.9577 -0.2877 0.0000
vn -0.9950 -0.0993 -0.0063
vn 0.0000 -0.0361 -0.9993
vn 0.9950 -0.0993 -0.0063
vn 0.0000 -0.1625 0.9867
vn 0.0000 0.0860 -0.9963
vn 0.0000 0.9980 0.0635
vn -0.9950 -0.0978 -0.0184
vn 0.9950 -0.0978 -0.0184
vn 0.0000 -0.2815 0.9595
vn 0.0000 0.9828 0.1847
vn 0.0000 0.2187 -0.9758
vn -0.9950 -0.0944 -0.0313
vn 0.9950 -0.0944 -0.0313
vn 0.0000 -0.4076 0.9131
vn 0.0000 0.9492 0.3147
vn 0.0000 0.3976 -0.9175
vn -0.9950 -0.0869 -0.0485
vn 0.9950 -0.0869 -0.0485
vn 0.0000 -0.5714 0.8206
vn 0.0000 0.8734 0.4870
vn 0.0000 0.5996 -0.8003
vn -0.9910 0.1171 0.0653
vn 0.9910 0.1171 0.0653
vn 0.0000 -0.3655 0.9308
vn 0.0000 0.8734 0.4869
vn -1.0000 0.0000 0.0000
vn 0.0000 0.0000 -1.0000
vn 1.0000 0.0000 0.0000
vn 0.0000 0.0000 1.0000
vn 0.0000 -1.0000 0.0000
vn 0.0000 -0.1264 -0.9920
vn 0.0000 0.1264 0.9920
vn 0.0000 -0.2098 0.9777
vn 0.0000 0.2098 -0.9777
usemtl None
s off
f 2/1/1 3/2/1 1/3/1
f 4/4/2 7/5/2 3/2/2
f 8/6/3 5/7/3 7/5/3
f 6/8/4 1/9/4 5/7/4
f 7/5/5 1/10/5 3/11/5
f 4/12/6 6/8/6 8/6/6
f 2/1/7 4/4/7 3/2/7
f 4/4/2 8/6/2 7/5/2
f 8/6/8 6/8/8 5/7/8
f 6/8/4 2/13/4 1/9/4
f 7/5/5 5/7/5 1/10/5
f 4/12/6 2/14/6 6/8/6
f 10/15/9 11/16/9 9/17/9
f 12/18/10 15/19/10 11/16/10
f 16/20/11 13/21/11 15/19/11
f 14/22/12 9/23/12 13/21/12
f 20/24/13 23/25/13 19/26/13
f 12/27/14 14/22/14 16/20/14
f 10/15/9 12/18/9 11/16/9
f 12/18/10 16/20/10 15/19/10
f 16/20/11 14/22/11 13/21/11
f 14/22/12 10/28/12 9/23/12
f 18/29/15 19/26/15 17/30/15
f 12/27/14 10/31/14 14/22/14
f 24/32/16 21/33/16 23/25/16
f 22/34/17 17/35/17 21/33/17
f 20/36/18 22/34/18 24/32/18
f 18/29/15 20/24/15 19/26/15
f 20/24/13 24/32/13 23/25/13
f 24/32/16 22/34/16 21/33/16
f 22/34/17 18/37/17 17/35/17
f 20/36/18 18/38/18 22/34/18
f 28/39/19 31/40/19 27/41/19
f 26/42/20 27/41/20 25/43/20
f 32/44/21 29/45/21 31/40/21
f 30/46/22 25/47/22 29/45/22
f 28/48/23 30/46/23 32/44/23
f 26/42/20 28/39/20 27/41/20
f 28/39/19 32/44/19 31/40/19
f 32/44/21 30/46/21 29/45/21
f 30/46/22 26/49/22 25/47/22
f 28/48/23 26/50/23 30/46/23
f 36/51/24 39/52/24 35/53/24
f 34/54/25 35/53/25 33/55/25
f 40/56/26 37/57/26 39/52/26
f 38/58/27 33/59/27 37/57/27
f 36/60/28 38/58/28 40/56/28
f 34/54/25 36/51/25 35/53/25
f 36/51/24 40/56/24 39/52/24
f 40/56/26 38/58/26 37/57/26
f 38/58/27 34/61/27 33/59/27
f 36/60/28 34/62/28 38/58/28
f 44/63/29 47/64/29 43/65/29
f 42/66/30 43/65/30 41/67/30
f 48/68/31 45/69/31 47/64/31
f 46/70/32 41/71/32 45/69/32
f 44/72/33 46/70/33 48/68/33
f 42/66/30 44/63/30 43/65/30
f 44/63/29 48/68/29 47/64/29
f 48/68/31 46/70/31 45/69/31
f 46/70/32 42/73/32 41/71/32
f 44/72/28 42/74/28 46/70/28
f 50/75/34 51/76/34 49/77/34
f 52/78/35 55/79/35 51/76/35
f 56/80/36 53/81/36 55/79/36
f 54/82/37 49/83/37 53/81/37
f 55/79/38 49/84/38 51/85/38
f 56/80/36 59/86/36 54/82/36
f 50/75/34 52/78/34 51/76/34
f 52/78/35 56/80/35 55/79/35
f 56/80/36 54/82/36 53/81/36
f 54/82/37 50/87/37 49/83/37
f 55/79/38 53/81/38 49/84/38
f 52/78/39 60/88/39 56/80/39
f 52/78/34 57/89/34 58/90/34
f 54/82/40 57/91/40 50/87/40
f 59/86/41 61/92/41 57/91/41
f 58/90/42 64/93/42 60/88/42
f 59/86/36 64/93/36 63/94/36
f 57/89/34 62/95/34 58/90/34
f 56/80/36 60/88/36 59/86/36
f 52/78/39 58/90/39 60/88/39
f 52/78/34 50/75/34 57/89/34
f 54/82/40 59/86/40 57/91/40
f 59/86/41 63/94/41 61/92/41
f 58/90/42 62/95/42 64/93/42
f 59/86/36 60/88/36 64/93/36
f 57/89/34 61/96/34 62/95/34
